<svg xmlns="http://www.w3.org/2000/svg" viewBox="0 0 668 393"><defs><style>.cls-1{isolation:isolate;}.cls-2{fill:#fff;}.cls-3{fill:#4089ff;}.cls-4{fill:#19243d;}.cls-5{fill:#ef5050;}.cls-6{fill:#ffc800;}.cls-7{mix-blend-mode:multiply;}.cls-8{fill:#ccc;}.cls-9{fill:#bf3d3d;}.cls-10{fill:#c31f31;}</style></defs><g class="cls-1"><g id="Layer_1" data-name="Layer 1"><path class="cls-2" d="M278.67,81.41H42.8a32.21,32.21,0,0,1,.27-5.63h0a50.83,50.83,0,0,1,6.11-18C54.17,49,61.64,42.47,70,44.48A18.5,18.5,0,0,1,78,48.89c4,3.58,7.29,8,11.3,11.6s9.12,6.54,14.5,6.14c6.75-.49,11.6-6.52,12.61-12.87,2.42-15.29,2.27-45.49,21.39-49.68.36-.08.72-.15,1.07-.2,16.33-2.8,27.6,13.16,31.94,27.45.5,1.63.9,3.23,1.22,4.78a61.11,61.11,0,0,1,1.37,11.94l.09.78c.13,1.11.28,2.21.46,3.29a26.54,26.54,0,0,0,2.26,7.44,3.42,3.42,0,0,0,2,2c2.61.63,4.8-2.39,6.29-4.8.42-.67.79-1.3,1.09-1.79,4.74-7.52,17.82-12.53,23.72-3.51,4.12,6.3.69,18.58,9.28,21.72,9.84,3.6,12.32-9.35,13.2-16,1.08-8.16.9-16.51,3.3-24.46,1-2.37,2.72-5.09,5.44-5.43a7,7,0,0,1,6.11,4.42c3,7.32,3.84,15.21,4.94,23,.9,6.3,2.12,20.2,10.5,21,4.45.41,8.48-7.53,12.6-4C277.24,73.88,277.1,78.55,278.67,81.41Z"/><path class="cls-3" d="M89.44,337.39c9.46,5.3,14.92,13.55,12.2,18.41S89,360.3,79.57,355c-6.55-3.67-9.88-11.08-11.31-15.29a3.07,3.07,0,0,1,2.24-4C74.84,334.74,82.89,333.72,89.44,337.39Z"/><path class="cls-3" d="M127.69,340.34c-5.35,5.42-11.93,7.58-14.72,4.84s-.71-9.37,4.64-14.78c3.7-3.75,9.32-4.63,12.44-4.81a2.15,2.15,0,0,1,2.28,2.25C132.19,331,131.38,336.59,127.69,340.34Z"/><path class="cls-4" d="M106.29,389.91h-1.65c0-.55,0-1.1,0-1.65a224.81,224.81,0,0,0-2.78-32.87c-.43-2.71-.91-5.42-1.43-8.15q-2.22-11.61-5.61-23.43a.83.83,0,1,1,1.59-.46,244.25,244.25,0,0,1,9.88,64.91C106.29,388.81,106.29,389.36,106.29,389.91Z"/><path class="cls-4" d="M93.15,316.28a.83.83,0,0,1-.79-.58c-8-25-17-41.29-17.1-41.46a.82.82,0,1,1,1.44-.8c.09.16,9.22,16.64,17.23,41.76a.83.83,0,0,1-.53,1A1.18,1.18,0,0,1,93.15,316.28Z"/><circle class="cls-5" cx="80.25" cy="285.97" r="18.36" transform="translate(-214.13 325.46) rotate(-81.97)"/><path class="cls-4" d="M123.49,292.47c-.85,2.42-1.64,4.89-2.39,7.41a1.16,1.16,0,0,0,0,.18c-.16.53-.33,1.07-.47,1.6a.19.19,0,0,0,0,.07c-1.55,5.44-2.87,11-4,16.68s-2.06,11.41-2.83,17c-.44,3.15-.82,6.27-1.15,9.31a410.35,410.35,0,0,0-2.42,43.54c0,.81,0,1.37,0,1.65h-1.66c0-.29,0-.85,0-1.65,0-7.92.31-39.62,6.52-70.55,1-5.22,2.25-10.42,3.67-15.48.15-.57.31-1.13.47-1.69h0s0-.1,0-.15c.15-.55.32-1.1.48-1.65q1-3.47,2.21-6.8a.83.83,0,0,1,1.06-.5A.82.82,0,0,1,123.49,292.47Z"/><polygon class="cls-6" points="138.41 296.1 125.42 283.12 107.69 287.87 102.94 305.6 115.92 318.58 133.65 313.83 138.41 296.1"/><path class="cls-2" d="M80.25,288.2c-9.53,0-19.65-2.3-19.65-6.57a.83.83,0,0,1,1.65,0c0,2.06,6.84,4.93,18,4.93s18-2.87,18-4.93a.83.83,0,0,1,1.65,0C99.89,285.9,89.77,288.2,80.25,288.2Z"/><path class="cls-2" d="M80.25,288.2c-9.53,0-19.65-2.3-19.65-6.57a.83.83,0,0,1,1.65,0c0,2.06,6.84,4.93,18,4.93s18-2.87,18-4.93a.83.83,0,0,1,1.65,0C99.89,285.9,89.77,288.2,80.25,288.2Z"/><path class="cls-2" d="M95.46,293.1a17.1,17.1,0,0,1-3.77-.49,48.52,48.52,0,0,1-12.59-5.28c-8.25-4.76-15.87-11.82-13.74-15.52a.83.83,0,0,1,1.43.83c-1,1.78,3.47,7.69,13.13,13.26A46.92,46.92,0,0,0,92.06,291c3.71.85,5.48.37,5.91-.38a.84.84,0,0,1,1.13-.3.83.83,0,0,1,.3,1.13C98.77,292.55,97.42,293.1,95.46,293.1Z"/><path class="cls-2" d="M95.46,293.1a17.1,17.1,0,0,1-3.77-.49,48.52,48.52,0,0,1-12.59-5.28c-8.25-4.76-15.87-11.82-13.74-15.52a.83.83,0,0,1,1.43.83c-1,1.78,3.47,7.69,13.13,13.26A46.92,46.92,0,0,0,92.06,291c3.71.85,5.48.37,5.91-.38a.84.84,0,0,1,1.13-.3.83.83,0,0,1,.3,1.13C98.77,292.55,97.42,293.1,95.46,293.1Z"/><path class="cls-2" d="M102.94,306.43a.83.83,0,0,1-.21-1.63l35.46-9.5a.82.82,0,0,1,.43,1.59l-35.47,9.51A.76.76,0,0,1,102.94,306.43Z"/><path class="cls-2" d="M120.67,301.67a.82.82,0,0,1-.58-.24l-13-13a.83.83,0,0,1,0-1.17.82.82,0,0,1,1.16,0l13,13a.82.82,0,0,1,0,1.16A.86.86,0,0,1,120.67,301.67Z"/><path class="cls-6" d="M529.23,50.48,482.89,350.81a8.88,8.88,0,0,1-10,7.44L391,347.12l-91.78-14.3a9.4,9.4,0,0,1-7.84-10.74l47-301.35a8.56,8.56,0,0,1,.25-1.14,9.41,9.41,0,0,1,10.49-6.71l134.5,21,15.74,2.45,22,3.44A9.4,9.4,0,0,1,529.23,50.48Z"/><path class="cls-4" d="M348.4,333.44h-.13L309,327.32a10.23,10.23,0,0,1-8.53-11.68L334.9,95a.82.82,0,1,1,1.63.25l-34.4,220.67a8.59,8.59,0,0,0,7.16,9.8l39.24,6.12a.82.82,0,0,1-.13,1.63Z"/><path class="cls-4" d="M441.45,348h-.13l-66.59-10.38a.82.82,0,0,1,.25-1.63l66.59,10.38a.82.82,0,0,1-.12,1.64Z"/><path class="cls-5" d="M497.76,310.55h-.13a.82.82,0,0,1-.68-.94l5.75-36.94a.82.82,0,0,1,1.63.25l-5.76,36.95A.82.82,0,0,1,497.76,310.55Z"/><path class="cls-5" d="M509.06,238.09h-.13a.82.82,0,0,1-.69-.94L538.34,44a8.57,8.57,0,0,0-7.16-9.8L516.59,32a.81.81,0,0,1-.68-.94.82.82,0,0,1,.94-.69l14.59,2.28A10.23,10.23,0,0,1,540,44.29l-30.1,193.1A.82.82,0,0,1,509.06,238.09Z"/><path class="cls-5" d="M403.8,14.37h-.13L372,9.43a.83.83,0,0,1-.69-.95.82.82,0,0,1,.94-.68l31.66,4.93a.82.82,0,0,1-.12,1.64Z"/><path class="cls-4" d="M292.23,212a1.28,1.28,0,0,0-1.13-.94,1.31,1.31,0,0,0-1.4.93,1.11,1.11,0,0,0-.05.25l-.24,2.49-.33,3.35-10.45,106.3a1.32,1.32,0,0,0,1.18,1.45h.13a1.32,1.32,0,0,0,1.31-1.19l10.42-106,.39-3.91.22-2.23A1.38,1.38,0,0,0,292.23,212Zm206.63-82.64a1.32,1.32,0,0,0-1.44,1.19L479.05,317.41a1.31,1.31,0,0,0,1.18,1.44h.13a1.31,1.31,0,0,0,1.31-1.19L500,130.82A1.32,1.32,0,0,0,498.86,129.37Zm3.69-92.57a15.31,15.31,0,0,0-2.61-1.68,14.43,14.43,0,0,0-5.2-1.5L460.6,30.26h0L339.09,18.32,323.73,16.8a14.82,14.82,0,0,0-16.17,13.27L298,128.36a1.33,1.33,0,0,0,1.18,1.45h.23a1.33,1.33,0,0,0,1.22-1.18l9.59-98.3a12.16,12.16,0,0,1,13.28-10.9l14.88,1.46L483.48,35.16l11,1.09a11.84,11.84,0,0,1,4.28,1.23,12.26,12.26,0,0,1,6.63,12l-5.45,55.42a1.32,1.32,0,1,0,2.62.26L508,49.78A14.89,14.89,0,0,0,502.55,36.8Z"/><polygon class="cls-6" points="53.76 227.5 55.96 231.66 59.99 233.93 55.96 236.21 53.76 240.37 51.55 236.21 47.53 233.93 51.55 231.66 53.76 227.5"/><polygon class="cls-3" points="267.04 2.25 268.93 5.83 272.4 7.79 268.93 9.74 267.04 13.32 265.14 9.74 261.67 7.79 265.14 5.83 267.04 2.25"/><path class="cls-2" d="M35,174.67a2.39,2.39,0,1,1,2.66,2.09A2.39,2.39,0,0,1,35,174.67Z"/><path class="cls-2" d="M33.88,165.7a2.39,2.39,0,1,1,2.66,2.08A2.39,2.39,0,0,1,33.88,165.7Z"/><circle class="cls-2" cx="45.96" cy="164.24" r="2.39" transform="translate(-19.34 6.69) rotate(-6.88)"/><path class="cls-2" d="M24.87,166.78a2.39,2.39,0,1,1,2.66,2.09A2.39,2.39,0,0,1,24.87,166.78Z"/><path class="cls-2" d="M32.79,156.72a2.39,2.39,0,1,1,2.66,2.09A2.4,2.4,0,0,1,32.79,156.72Z"/><path class="cls-3" d="M579.13,98.59a.58.58,0,0,1-.41-.17.56.56,0,0,1-.13-.6l4-10.41L572,91.21a.54.54,0,0,1-.59-.13.57.57,0,0,1-.15-.58l3.94-12.1a.57.57,0,0,1,1.09.35l-3.58,11,10.71-3.83A.57.57,0,0,1,584,86a.6.6,0,0,1,.12.61l-4,10.39,10.5-3.9a.57.57,0,0,1,.74.34.56.56,0,0,1-.34.73l-11.69,4.35Z"/><path class="cls-3" d="M189.64,127.22a.41.41,0,0,1,.07-.3.41.41,0,0,1,.42-.14l7.63,1.79-3.67-7a.4.4,0,0,1,0-.42.38.38,0,0,1,.39-.16l8.81,1.59a.39.39,0,0,1,.32.46.41.41,0,0,1-.47.33l-8-1.44,3.69,7.09a.41.41,0,0,1,0,.44.4.4,0,0,1-.41.14l-7.62-1.8,3.72,7a.4.4,0,0,1-.16.54.41.41,0,0,1-.55-.16l-4.14-7.73A.37.37,0,0,1,189.64,127.22Z"/><path class="cls-4" d="M143.91,243.32a1,1,0,0,0-1.3.52,9.31,9.31,0,0,1-7.14,5.76,11.11,11.11,0,0,1-3.9,0,7.1,7.1,0,0,0,1.82-6.06,5.59,5.59,0,0,0-3-4.05,6.8,6.8,0,0,0-5.94,0,4.74,4.74,0,0,0-2.73,3.14c-.3,1.43.27,2.93,1.68,4.48a14.66,14.66,0,0,0,4.38,3.25,35.74,35.74,0,0,1-9.51,4.3,1,1,0,0,0,.28,1.93.86.86,0,0,0,.28,0c2.82-.84,7.75-2.58,11.12-5.36a13.28,13.28,0,0,0,5.91.37,11.24,11.24,0,0,0,8.62-6.93A1,1,0,0,0,143.91,243.32Zm-14.47,5.62a12.53,12.53,0,0,1-4.62-3.18c-.67-.72-1.42-1.78-1.21-2.74s1.23-1.54,1.67-1.77a4.94,4.94,0,0,1,2.16-.49,4.6,4.6,0,0,1,2,.45,3.58,3.58,0,0,1,2,2.64A5.63,5.63,0,0,1,129.44,248.94Z"/><path class="cls-2" d="M205.6,217.21s-84.48,0-84.57,0H100.79a17.92,17.92,0,0,1-.23-3.94h0l0-.32c0-.11,0-.18,0-.21a35.67,35.67,0,0,1,1.17-5.21,28,28,0,0,1,3.07-6.86,18.3,18.3,0,0,1,6.3-6.25,25.06,25.06,0,0,1,8.28-3,18.81,18.81,0,0,1,14,2.75c2.52,1.71,4.85,4.37,8,4.78,4.86.63,6.14-4.72,6.54-8.42,1.06-10,1.91-25.51,14.07-28.38a6.93,6.93,0,0,1,5.51.88c3,1.9,4.94,5.93,6,9.24,1.77,5.34,2.74,11.14,4.94,16.31,1.63,3.83,4.87,6.16,9.12,5.59a10.13,10.13,0,0,1,4.12.29,15.48,15.48,0,0,1,7.69,5.54,20.61,20.61,0,0,1,1.88,2.85C203.65,207.07,204.65,212.44,205.6,217.21Z"/><path class="cls-2" d="M535.43,224.09H637c-.69-8.51-6.25-23-7.28-24.68-.42-.67-.79-1.3-1.1-1.79-4.74-7.52-17.81-12.53-23.71-3.51-4.12,6.3-.69,18.58-9.28,21.72-9.85,3.6-12.33-9.35-13.2-16-1.08-8.15-.9-16.51-3.3-24.45-1-2.38-2.72-5.1-5.44-5.44a7.06,7.06,0,0,0-6.12,4.42c-3,7.32-3.84,15.21-4.94,23-.89,6.3-2.12,20.2-10.5,21-4.44.41-8.47-7.53-12.59-4C536.87,216.55,537,221.22,535.43,224.09Z"/><path class="cls-4" d="M664.68,389.91H625a.83.83,0,0,1,0-1.65h39.68a.83.83,0,1,1,0,1.65Z"/><path class="cls-4" d="M613.3,389.09a.83.83,0,0,1-.83.82H466.8a.82.82,0,0,1-.25-1.61.73.73,0,0,1,.25,0H612.47A.83.83,0,0,1,613.3,389.09Z"/><path class="cls-4" d="M526.86,389.94H311.79a.83.83,0,0,1,0-1.65H526.86a.83.83,0,0,1,0,1.65Z"/><path class="cls-4" d="M287.59,389.94H170.23a.83.83,0,1,1,0-1.65H287.59a.83.83,0,1,1,0,1.65Z"/><path class="cls-4" d="M184.55,389.09a.82.82,0,0,1-.82.82H64a.83.83,0,1,1,0-1.65H183.73a.64.64,0,0,1,.24,0A.82.82,0,0,1,184.55,389.09Z"/><path class="cls-4" d="M39.78,389.91H3.32a.83.83,0,1,1,0-1.65H39.78a.83.83,0,1,1,0,1.65Z"/><rect class="cls-2" x="347.54" y="108.73" width="137.48" height="25.74" rx="12.87" transform="translate(18.79 -51.83) rotate(7.29)"/><rect class="cls-2" x="352.54" y="69.63" width="137.48" height="25.74" rx="12.87" transform="translate(13.87 -52.78) rotate(7.29)"/><rect class="cls-3" x="370.06" y="79" width="102.44" height="6.99" rx="3.5" transform="translate(13.87 -52.78) rotate(7.29)"/><path class="cls-4" d="M387.47,123.6h-.06a.44.44,0,0,1-.38-.5l1.14-8.91a.44.44,0,0,1,.5-.39.45.45,0,0,1,.38.5l-1.14,8.92A.45.45,0,0,1,387.47,123.6Z"/><path class="cls-4" d="M384.48,121.89a.44.44,0,0,1-.35-.18.44.44,0,0,1,.08-.62l7.11-5.5a.46.46,0,0,1,.63.08.44.44,0,0,1-.08.62l-7.11,5.5A.44.44,0,0,1,384.48,121.89Z"/><path class="cls-4" d="M392.5,119.71h-.06l-8.92-1.14a.44.44,0,0,1-.38-.49.45.45,0,0,1,.5-.39l8.91,1.14a.45.45,0,0,1-.05.89Z"/><path class="cls-4" d="M390.79,122.69a.46.46,0,0,1-.35-.17l-5.5-7.11a.45.45,0,1,1,.7-.55l5.5,7.12a.44.44,0,0,1-.08.62A.46.46,0,0,1,390.79,122.69Z"/><path class="cls-4" d="M401.78,125.43h-.06a.44.44,0,0,1-.38-.49l1.14-8.92a.44.44,0,0,1,.5-.39.45.45,0,0,1,.38.5L402.22,125A.45.45,0,0,1,401.78,125.43Z"/><path class="cls-4" d="M398.79,123.72a.44.44,0,0,1-.35-.18.44.44,0,0,1,.08-.62l7.11-5.5a.46.46,0,0,1,.63.08.44.44,0,0,1-.08.62l-7.11,5.5A.44.44,0,0,1,398.79,123.72Z"/><path class="cls-4" d="M406.81,121.54h-.06l-8.92-1.14a.44.44,0,0,1-.38-.49.45.45,0,0,1,.5-.39l8.92,1.14a.45.45,0,0,1-.06.89Z"/><path class="cls-4" d="M405.1,124.52a.46.46,0,0,1-.35-.17l-5.5-7.11a.45.45,0,0,1,.7-.55l5.5,7.12a.44.44,0,0,1-.08.62A.46.46,0,0,1,405.1,124.52Z"/><path class="cls-4" d="M416.09,127.26H416a.44.44,0,0,1-.38-.49l1.14-8.92a.44.44,0,1,1,.88.11l-1.14,8.92A.45.45,0,0,1,416.09,127.26Z"/><path class="cls-4" d="M413.1,125.55a.44.44,0,0,1-.35-.18.44.44,0,0,1,.08-.62l7.11-5.5a.46.46,0,0,1,.63.08.44.44,0,0,1-.08.62l-7.11,5.5A.44.44,0,0,1,413.1,125.55Z"/><path class="cls-4" d="M421.12,123.37h-.06l-8.92-1.14a.44.44,0,0,1-.38-.49.45.45,0,0,1,.5-.39l8.92,1.14a.45.45,0,0,1-.06.89Z"/><path class="cls-4" d="M419.41,126.35a.46.46,0,0,1-.35-.17l-5.5-7.11a.44.44,0,0,1,.7-.54l5.5,7.11a.44.44,0,0,1-.08.62A.46.46,0,0,1,419.41,126.35Z"/><path class="cls-4" d="M430.4,129.09h-.06a.44.44,0,0,1-.38-.49l1.14-8.92a.44.44,0,0,1,.5-.39.45.45,0,0,1,.38.5l-1.14,8.92A.45.45,0,0,1,430.4,129.09Z"/><path class="cls-4" d="M427.41,127.38a.44.44,0,0,1-.35-.18.44.44,0,0,1,.08-.62l7.11-5.5a.46.46,0,0,1,.63.08.44.44,0,0,1-.08.62l-7.11,5.5A.44.44,0,0,1,427.41,127.38Z"/><path class="cls-4" d="M435.43,125.2h-.06l-8.92-1.14a.44.44,0,0,1-.38-.49.45.45,0,0,1,.5-.39l8.92,1.14a.45.45,0,0,1-.06.89Z"/><path class="cls-4" d="M433.72,128.18a.46.46,0,0,1-.35-.17l-5.5-7.11a.44.44,0,0,1,.7-.54l5.5,7.11a.44.44,0,0,1-.08.62A.46.46,0,0,1,433.72,128.18Z"/><path class="cls-4" d="M446.48,130.93h-.06a.45.45,0,0,1-.38-.5l1.14-8.92a.45.45,0,0,1,.5-.38.44.44,0,0,1,.38.5l-1.14,8.91A.44.44,0,0,1,446.48,130.93Z"/><path class="cls-4" d="M443.49,129.22a.46.46,0,0,1-.35-.17.44.44,0,0,1,.08-.62l7.11-5.5a.45.45,0,1,1,.55.7l-7.12,5.5A.44.44,0,0,1,443.49,129.22Z"/><path class="cls-4" d="M451.51,127h-.06l-8.92-1.14a.45.45,0,0,1-.38-.5.44.44,0,0,1,.5-.38l8.91,1.14a.44.44,0,0,1-.05.88Z"/><path class="cls-4" d="M449.8,130a.46.46,0,0,1-.35-.17l-5.5-7.12a.44.44,0,0,1,.08-.62.44.44,0,0,1,.62.08l5.5,7.11a.46.46,0,0,1-.08.63A.46.46,0,0,1,449.8,130Z"/><circle class="cls-2" cx="394.1" cy="267.06" r="29.51"/><path class="cls-4" d="M395.86,247.16a10.93,10.93,0,0,0-12,9.68l-.49,4.44-1.25,11.56a.5.5,0,0,0,.44.56l8.05.87h0l4.53.5,8.14.88h.05a.51.51,0,0,0,.51-.46l1.26-11.56.48-4.43A10.94,10.94,0,0,0,395.86,247.16Zm7,27.42-7.81-.85-4.16-.45-7.73-.84,1.22-11.12.47-4.37a9.9,9.9,0,1,1,19.69,2.14l-.47,4.37Z"/><rect class="cls-3" x="383.26" y="257.49" width="19.74" height="29.43" rx="4.6" transform="translate(80 633.58) rotate(-83.79)"/><path class="cls-2" d="M396,270.8a2.78,2.78,0,1,0-5.53-.6,2.74,2.74,0,0,0,.65,2.1l-1.06,3.57a1,1,0,0,0,.83,1.25l3.21.35a1,1,0,0,0,1.08-1l-.26-3.72A2.72,2.72,0,0,0,396,270.8Z"/><path class="cls-3" d="M561.58,370.85c6.24,6.31,13.92,8.84,17.17,5.64s.82-10.93-5.41-17.24c-4.31-4.37-10.87-5.4-14.51-5.61a2.51,2.51,0,0,0-2.66,2.62C556.34,359.9,557.27,366.48,561.58,370.85Z"/><path class="cls-4" d="M599.85,275.73c-1.08,3.07-2.07,6.22-3,9.42-1.1,3.84-2.06,7.75-2.93,11.68-.46,2.08-.88,4.16-1.28,6.23-.24,1.26-.47,2.51-.68,3.76a340.49,340.49,0,0,0-4.58,43.77c-.8,18.61-.16,33.29.08,37.67,0,.86.08,1.33.08,1.35a.75.75,0,0,1,0,.3H586l0-.19s0-.53-.09-1.46c-.24-4.54-.87-19.19-.07-37.73a342.74,342.74,0,0,1,4.62-44.09c.21-1.24.45-2.5.69-3.75.4-2.09.83-4.19,1.29-6.27.86-3.94,1.84-7.86,2.92-11.7.93-3.24,1.93-6.43,3-9.54a.82.82,0,1,1,1.55.55Z"/><path class="cls-4" d="M581.3,388.26c0,.46,0,.94,0,1.41a.67.67,0,0,1,0,.24h-1.57a1,1,0,0,1,0-.25c0-.48,0-.94,0-1.4q0-6.51-.46-12.3c-.31-3.84-.77-7.45-1.34-10.85a104,104,0,0,0-9.36-29.21c-1.19-2.41-2.38-4.57-3.51-6.52a.82.82,0,1,1,1.42-.82c1.17,2,2.4,4.25,3.63,6.75C575.66,346.71,581.39,363.48,581.3,388.26Z"/><path class="cls-3" d="M598.9,294.67c-1.22,5.23-4.39,9-7.08,8.33s-3.87-5.38-2.65-10.6c.84-3.62,3.91-6.22,5.71-7.48a1.52,1.52,0,0,1,2.21.52C598.15,287.36,599.74,291.05,598.9,294.67Z"/><path class="cls-5" d="M617.94,279.73a3.65,3.65,0,0,0-2.51-5.56h0a7,7,0,0,0-7.26,3.27L599.26,294a5.43,5.43,0,0,1-6,2.72h0a5.45,5.45,0,0,1-4.2-5.1l-.66-18.79a6.94,6.94,0,0,0-5.06-6.15h0a4.85,4.85,0,0,0-4.67,5s.84,24.8.89,25.3l0,.23a10.15,10.15,0,0,0,7.74,8.52l7.24,1.69a10.14,10.14,0,0,0,10.71-4.22l0,0Z"/><path class="cls-6" d="M558,313.27h0l5.76-11.22a4.32,4.32,0,0,0-3.22-6.24h0a4.32,4.32,0,0,0-4.86,5.07Z"/><path class="cls-6" d="M553.07,317h0l-12.39,2.32a4.31,4.31,0,0,1-5.06-4.86h0a4.31,4.31,0,0,1,6.24-3.22Z"/><path class="cls-6" d="M556.61,321.7h0l-5.76,11.21a4.32,4.32,0,0,0,3.21,6.24h0a4.32,4.32,0,0,0,4.87-5.06Z"/><path class="cls-6" d="M561.55,318h0l12.4-2.32a4.31,4.31,0,0,1,5.06,4.86h0a4.31,4.31,0,0,1-6.24,3.21Z"/><path class="cls-6" d="M554.83,314h0L551,302a4.31,4.31,0,0,0-6.68-2.14h0a4.32,4.32,0,0,0,.14,7Z"/><path class="cls-6" d="M553.94,320.11h0l-7.12,10.4a4.31,4.31,0,0,1-7,.15h0a4.33,4.33,0,0,1,2.14-6.69Z"/><path class="cls-6" d="M559.79,321h0l3.86,12a4.32,4.32,0,0,0,6.69,2.13h0a4.31,4.31,0,0,0-.14-7Z"/><path class="cls-6" d="M560.68,314.86h0l7.12-10.41a4.32,4.32,0,0,1,7-.14h0a4.31,4.31,0,0,1-2.14,6.68Z"/><rect class="cls-2" x="366.77" y="166.38" width="81.47" height="29.91" rx="14.96" transform="translate(26.3 -50.24) rotate(7.29)"/><path class="cls-5" d="M391.53,185.65l-.19,0a1.17,1.17,0,0,1-1-1.35l1.12-7a1.19,1.19,0,0,1,1.33-1L420.57,180l-1.84-2.34a1.19,1.19,0,0,1,1.87-1.46l3.64,4.63a1.2,1.2,0,0,1,.09,1.32,1.17,1.17,0,0,1-1.18.59l-29.51-4-.94,5.87A1.2,1.2,0,0,1,391.53,185.65Z"/><path class="cls-5" d="M418.53,185.71a1.18,1.18,0,0,1-.62-2.19l4.77-3a1.19,1.19,0,0,1,1.25,2l-4.78,2.95A1.17,1.17,0,0,1,418.53,185.71Z"/><polygon class="cls-2" points="319.11 373.19 313.99 360.66 284.68 361.17 284.68 382.42 311.86 385.7 319.11 373.19"/><path class="cls-4" d="M285.76,364.32a7.64,7.64,0,0,0-1.08.07v-3.22l.69-.05h0l16.57-1h0l1.32-.08,10.65-.67,1.12,3.14H302.53l2.5,10.76a1.06,1.06,0,0,1,.31,0h19.6a1.37,1.37,0,0,1,1.37,1.38,1.3,1.3,0,0,1-.17.64l4.79,2.55a6.52,6.52,0,0,1,3.46,5.76v7.23H284.68V380.66a7.64,7.64,0,0,0,1.08.07,8.21,8.21,0,0,0,0-16.41Z"/><polygon class="cls-2" points="194.05 373.19 199.18 360.66 228.48 361.17 228.48 382.42 201.31 385.7 194.05 373.19"/><path class="cls-4" d="M227.4,364.32a7.54,7.54,0,0,1,1.08.07v-3.22l-.69-.05h0l-16.57-1h0l-1.33-.08-10.64-.67-1.13,3.14h12.54l-2.5,10.76a1,1,0,0,0-.3,0h-19.6a1.38,1.38,0,0,0-1.38,1.38,1.3,1.3,0,0,0,.17.64l-4.79,2.55a6.52,6.52,0,0,0-3.46,5.76v7.23h49.71V380.66a7.54,7.54,0,0,1-1.08.07,8.21,8.21,0,0,1,0-16.41Z"/><path class="cls-5" d="M287,217.16a11.82,11.82,0,0,0,11.11.35l63.23-31.23a11.8,11.8,0,0,0-10.46-21.16l-47.21,23.32-.39-6.83a11.8,11.8,0,1,0-23.56,1.33l1.38,24.65a11.79,11.79,0,0,0,5.84,9.53Z"/><rect class="cls-4" x="279.32" y="168.53" width="23.6" height="13.75" transform="translate(-9.39 16.62) rotate(-3.22)"/><path class="cls-4" d="M275.91,186.21a3.78,3.78,0,0,0,2.06.5l24.42-1.15A3.78,3.78,0,0,0,302,178l-24.42,1.15a3.78,3.78,0,0,0-1.7,7.05Z"/><path class="cls-4" d="M284.86,178.78a11.8,11.8,0,0,0,17.66-10.9l-.6-10.65a11.8,11.8,0,1,0-23.57,1.33l.6,10.65A11.81,11.81,0,0,0,284.86,178.78Z"/><path class="cls-5" d="M350.06,189a4.17,4.17,0,0,0,3.93.13l15.54-7.6a4.18,4.18,0,0,0-3.68-7.51l-15.54,7.6a4.19,4.19,0,0,0-.25,7.38Z"/><path class="cls-5" d="M349.84,180.54a4.18,4.18,0,0,0,4.06.06l17.76-9.48a4.18,4.18,0,0,0-3.93-7.38L350,173.22a4.19,4.19,0,0,0-.12,7.32Z"/><path class="cls-5" d="M355.4,170.28a4.17,4.17,0,0,0,4.32-.09l13.92-8.81a4.18,4.18,0,1,0-4.47-7.06l-13.92,8.8a4.19,4.19,0,0,0-1.3,5.77A4.27,4.27,0,0,0,355.4,170.28Z"/><path class="cls-5" d="M350.93,172.56a4.18,4.18,0,0,0,6.25-4.05l-.28-2.72h2.81a4.18,4.18,0,1,0,0-8.36l-7.42,0a4.19,4.19,0,0,0-4.15,4.61l.75,7.31A4.18,4.18,0,0,0,350.93,172.56Z"/><rect class="cls-3" x="271.23" y="208.49" width="32.58" height="151.8" transform="translate(-41.45 49.18) rotate(-9.12)"/><rect class="cls-3" x="153.57" y="267.56" width="152.08" height="32.58" transform="translate(-94.89 451.15) rotate(-78.3)"/><path class="cls-3" d="M247.62,225.35h25.67a14.17,14.17,0,0,0,0-28.33H247.62a14.17,14.17,0,0,0,0,28.33Z"/><path class="cls-4" d="M229.62,207.72h61l8.41-47.17a14.41,14.41,0,0,0-14.19-16.93H235.4a14.41,14.41,0,0,0-14.19,16.93Z"/><path class="cls-5" d="M256.47,150.36a7.25,7.25,0,0,0,8.12-6.28l.67-5.16.34-2.66,1.17-9.13.55-4.34a7.26,7.26,0,0,0-13.93-3.64,7,7,0,0,0-.47,1.79l-.83,6.5L251,136.26l-.77,6A7.26,7.26,0,0,0,256.47,150.36Z"/><g class="cls-7"><path class="cls-8" d="M254.4,127.58c1.37,6.3,4.44,10.84,10.86,11.34l.34-2.66,1.17-9.13.55-4.34a7.26,7.26,0,0,0-13.93-3.64,7,7,0,0,0-.47,1.79Z"/></g><path class="cls-5" d="M271.68,134.42h0a8.94,8.94,0,0,0,5.05-11.62L274,115.89a11.8,11.8,0,0,0-15.31-6.64h0A11.8,11.8,0,0,0,252,124.56l.64,1.61A14.64,14.64,0,0,0,271.68,134.42Z"/><path class="cls-3" d="M234.82,358.31a4.16,4.16,0,0,1-4.17,4.16H197.74a4.17,4.17,0,0,1,0-8.33h32.91a3.93,3.93,0,0,1,1,.13A4.15,4.15,0,0,1,234.82,358.31Z"/><path class="cls-3" d="M320.29,358.31a4.16,4.16,0,0,1-4.16,4.16H283.91a4.17,4.17,0,1,1,0-8.33h32.22A4.17,4.17,0,0,1,320.29,358.31Z"/><path class="cls-5" d="M273.22,116.27l6.92,5.94a1.25,1.25,0,0,1-.55,2.17l-5,1.08Z"/><circle class="cls-4" cx="272.4" cy="106.31" r="7.34" transform="translate(87.33 332.7) rotate(-72.05)"/><circle class="cls-4" cx="262.63" cy="107.65" r="5.19"/><path class="cls-4" d="M253.91,116.49l18.92-2.82a4.64,4.64,0,0,0,3.9-5.26h0a4.64,4.64,0,0,0-5.26-3.9l-18.93,2.83a4.62,4.62,0,0,0-3.89,5.25h0A4.64,4.64,0,0,0,253.91,116.49Z"/><polygon class="cls-4" points="250.69 126.25 258.86 125.03 260.35 110.81 248.64 112.55 250.69 126.25"/><path class="cls-5" d="M249,125a5.57,5.57,0,1,0,4.69-6.32A5.57,5.57,0,0,0,249,125Z"/><path class="cls-5" d="M199,255.73a11.82,11.82,0,0,0,11.12-7.83l23.48-65.58a11.81,11.81,0,0,0-22.23-8l-23.48,65.58A11.82,11.82,0,0,0,199,255.73Z"/><rect class="cls-4" x="217.98" y="160.08" width="13.75" height="23.61" transform="translate(-14.01 323.7) rotate(-69.83)"/><path class="cls-4" d="M227.23,177.24a11.82,11.82,0,0,0,11.08-7.74l3.67-10a11.8,11.8,0,0,0-22.16-8.14l-3.67,10a11.82,11.82,0,0,0,11.08,15.88Z"/><path class="cls-4" d="M233.48,186.41a3.78,3.78,0,0,0,1.32-7.32l-22.05-8.2a3.78,3.78,0,0,0-2.63,7.08l22,8.2A3.84,3.84,0,0,0,233.48,186.41Z"/><path class="cls-4" d="M260.9,222.11h4.29a1.36,1.36,0,0,0,1.36-1.22l1.34-12.22a1.37,1.37,0,1,0-2.72-.3l-1.21,11H260.9a1.37,1.37,0,0,0,0,2.74Z"/><path class="cls-4" d="M277.6,214.75h14.5a1.38,1.38,0,1,0,0-2.75H277.6a1.38,1.38,0,0,0,0,2.75Z"/><path class="cls-4" d="M227.54,214.75H242a1.38,1.38,0,1,0,0-2.75h-14.5a1.38,1.38,0,0,0,0,2.75Z"/><path class="cls-5" d="M186.46,262.41a4.19,4.19,0,0,0,4-2.92L195.66,243a4.18,4.18,0,0,0-8-2.52L182.47,257a4.17,4.17,0,0,0,4,5.44Z"/><path class="cls-5" d="M192.56,271a4.19,4.19,0,0,0,4-3.06l5.38-19.4a4.18,4.18,0,1,0-8.05-2.24l-5.39,19.4a4.18,4.18,0,0,0,2.91,5.15A4.31,4.31,0,0,0,192.56,271Z"/><path class="cls-5" d="M201.62,269.66a4.19,4.19,0,0,0,4.09-3.37l3.23-16.15a4.18,4.18,0,1,0-8.2-1.64l-3.23,16.16a4.18,4.18,0,0,0,3.28,4.91A3.91,3.91,0,0,0,201.62,269.66Z"/><path class="cls-5" d="M210.86,259a4.24,4.24,0,0,0,1.11-.15,4.18,4.18,0,0,0,2.92-5.15l-2.83-10.26a4.18,4.18,0,0,0-8.06,2.22l2.83,10.27A4.18,4.18,0,0,0,210.86,259Z"/><path class="cls-9" d="M602.24,155.36,601,166.68a.42.42,0,0,0,.61.43l2.84-1.38,1.28-11.32a.43.43,0,0,0-.61-.44Z"/><path class="cls-5" d="M610.07,166.85l-.73-1.07h0l-4.22-6.2-2.87-4.21h0l3.21-1.56a.41.41,0,0,1,.54.14l6.66,9.78h0l.73,1.06-.09.06Z"/><path class="cls-10" d="M604.41,165.73l-3.21,1.56a.44.44,0,0,1-.54-.14l-7.49-11-.76-1.11,3.79-1.37.75,1.11,4.59,6.73Z"/><path class="cls-5" d="M604.41,165.73l-3.21,1.56a.44.44,0,0,1-.54-.14l-7.49-11-.76-1.11,3.79-1.37.75,1.11,4.59,6.73Z"/><path class="cls-9" d="M121.21,147.09l-11.34,1.17a.43.43,0,0,1-.42-.62l1.41-2.83,11.33-1.17a.43.43,0,0,1,.43.62Z"/><path class="cls-5" d="M109.8,139.14l1.06.74h0l6.15,4.29,4.18,2.91h0l1.59-3.2a.42.42,0,0,0-.14-.54l-9.7-6.76h0l-1.07-.73,0,.08Z"/><path class="cls-10" d="M110.86,144.81l-1.59,3.2a.42.42,0,0,0,.13.54l10.92,7.6,1.1.77,1.41-3.77-1.1-.77L115,147.73Z"/><path class="cls-5" d="M110.86,144.81l-1.59,3.2a.42.42,0,0,0,.13.54l10.92,7.6,1.1.77,1.41-3.77-1.1-.77L115,147.73Z"/></g></g></svg>