<svg id="Layer_1" data-name="Layer 1" xmlns="http://www.w3.org/2000/svg" viewBox="0 0 200 48"><defs><style>.cls-1{fill:#ef5050;}.cls-2{fill:#bf3d3d;}.cls-3{fill:#c31f31;}.cls-4{fill:#19243d;}</style></defs><path class="cls-1" d="M125.83,44.58,123.48,21.4l0-.21-.79-7.86,0-.22-.16-1.55a1.68,1.68,0,0,0-1.67-1.51H90.38a1.68,1.68,0,0,0-1.66,1.5L86.23,35.11l0,.23-.86,8.09,0,.23-.1.92a1.67,1.67,0,0,0,1.66,1.85h37.28A1.67,1.67,0,0,0,125.83,44.58ZM88,43.7l0-.45,0-.22.85-8.1,0-.22,1.62-15.36.31-2.93.39-3.58h28.57l.07.66,0,.22.79,7.86,0,.22L123,43.7Z"/><path class="cls-2" d="M99.07,10a6.58,6.58,0,0,1,13.16,0v0h1.84v0a8.42,8.42,0,1,0-16.84,0v.08h1.84Z"/><path class="cls-2" d="M94.85,25.35l20,12.71a.89.89,0,0,0,1.36-.75V30.73L96.22,18a.89.89,0,0,0-1.37.75Z"/><path class="cls-1" d="M123.45,21.18l-2.66.39h0l-15.43,2.26L94.86,25.35h0V17.93a.89.89,0,0,1,.76-.88L120,13.5h0l2.66-.38,0,.21Z"/><path class="cls-3" d="M116.2,30.73v7.42a.88.88,0,0,1-.76.88L88.09,43l-2.76.4.88-8.32,2.75-.4,16.76-2.45Z"/><path class="cls-1" d="M116.2,30.73v7.42a.88.88,0,0,1-.76.88L88.09,43l-2.76.4.88-8.32,2.75-.4,16.76-2.45Z"/><path class="cls-4" d="M3.22,15.79h0A1.72,1.72,0,0,0,1.51,17.5V39a1.71,1.71,0,0,0,3.42,0V17.5A1.72,1.72,0,0,0,3.22,15.79Z"/><path class="cls-4" d="M79.39,22.66a10.92,10.92,0,0,0-.33-1.19,8.49,8.49,0,0,0-3.28-4.57,11,11,0,0,0-11.2,0,8.54,8.54,0,0,0-3.28,4.57c-.12.38-.23.78-.32,1.19a11.58,11.58,0,0,0-.21,1.43c-.05.55-.05,7.75,0,8.3A11.76,11.76,0,0,0,61,33.83c.09.4.2.8.32,1.18a8.51,8.51,0,0,0,3.28,4.57,11,11,0,0,0,11.2,0A8.46,8.46,0,0,0,79.06,35a11.41,11.41,0,0,0,.33-1.18,11.76,11.76,0,0,0,.21-1.44c.05-.55.05-7.75,0-8.3A11.58,11.58,0,0,0,79.39,22.66Zm-3.26,9.25c-.07.51-.13.94-.19,1.28s-.14.64-.21.87a5.53,5.53,0,0,1-2,2.87,5.92,5.92,0,0,1-3.57,1,5.8,5.8,0,0,1-3.54-1,6,6,0,0,1-2.19-3.74c-.06-.34-.13-.77-.19-1.28s-.07-6.82,0-7.34.13-.94.19-1.28a5.41,5.41,0,0,1,.21-.86,5.55,5.55,0,0,1,2-2.88,5.87,5.87,0,0,1,3.54-1,6,6,0,0,1,3.57,1,5.52,5.52,0,0,1,2,2.88c.07.23.14.51.21.86s.12.77.19,1.28S76.19,31.4,76.13,31.91Z"/><path class="cls-4" d="M28.42,15.79h0a1.6,1.6,0,0,0-1.6,1.59V34.13L14.32,16.56a.74.74,0,0,0-.12-.13,1.7,1.7,0,0,0-.22-.24,1.38,1.38,0,0,0-.25-.17,1.34,1.34,0,0,0-.27-.13,1.8,1.8,0,0,0-.32-.06,1.16,1.16,0,0,0-.18,0h0l-.11,0a2,2,0,0,0-.31.07,1.18,1.18,0,0,0-.3.1l-.1,0h0a.5.5,0,0,0-.13.12,1.79,1.79,0,0,0-.25.22,2.13,2.13,0,0,0-.16.25,1.66,1.66,0,0,0-.13.27,1.83,1.83,0,0,0-.07.32c0,.06,0,.12,0,.18V39.1a1.59,1.59,0,1,0,3.18,0V22.36l12.5,17.56a1.79,1.79,0,0,0,.13.14,2.4,2.4,0,0,0,.22.24l.25.16a1.13,1.13,0,0,0,.27.13,1.7,1.7,0,0,0,.31.06,1.29,1.29,0,0,0,.19,0l.11,0,.3-.06a1.63,1.63,0,0,0,.31-.11l.1,0a1.42,1.42,0,0,0,.13-.12,1.7,1.7,0,0,0,.24-.22,1.38,1.38,0,0,0,.17-.25,2.24,2.24,0,0,0,.13-.27,1.8,1.8,0,0,0,.06-.32,1.16,1.16,0,0,0,0-.18V17.38A1.59,1.59,0,0,0,28.42,15.79Z"/><path class="cls-4" d="M53.5,15.79h0a1.59,1.59,0,0,0-1.59,1.59V34.13L39.41,16.56l-.13-.13a1.26,1.26,0,0,0-.22-.24,1.38,1.38,0,0,0-.25-.17,1.13,1.13,0,0,0-.27-.13,1.7,1.7,0,0,0-.31-.06,1.29,1.29,0,0,0-.19,0h0l-.11,0a1.63,1.63,0,0,0-.3.07,1.12,1.12,0,0,0-.31.1l-.1,0h0a1.42,1.42,0,0,0-.13.12,1.7,1.7,0,0,0-.24.22,1.38,1.38,0,0,0-.17.25,1.66,1.66,0,0,0-.13.27,1.8,1.8,0,0,0-.06.32,1.16,1.16,0,0,0,0,.18V39.1a1.59,1.59,0,0,0,3.18,0V22.36L52.14,39.92a.81.81,0,0,0,.12.14l.22.24.25.16a1.34,1.34,0,0,0,.27.13,1.65,1.65,0,0,0,.32.06,1,1,0,0,0,.18,0l.11,0,.31-.06a1.82,1.82,0,0,0,.3-.11l.1,0a.81.81,0,0,0,.14-.12,2.5,2.5,0,0,0,.24-.22,2.13,2.13,0,0,0,.16-.25A1.34,1.34,0,0,0,55,39.6a1.2,1.2,0,0,0,.06-.32,1.16,1.16,0,0,0,0-.18V17.38A1.59,1.59,0,0,0,53.5,15.79Z"/><path class="cls-4" d="M148.65,15.79h0a1.72,1.72,0,0,0-1.71,1.71v8.75a.23.23,0,0,1-.23.23H135.4a.23.23,0,0,1-.23-.23V17.5a1.72,1.72,0,0,0-1.71-1.71h0a1.72,1.72,0,0,0-1.71,1.71V39a1.71,1.71,0,1,0,3.42,0V29.9a.23.23,0,0,1,.23-.23h11.31a.23.23,0,0,1,.23.23V39a1.71,1.71,0,0,0,1.71,1.71h0a1.7,1.7,0,0,0,1.7-1.71V17.5A1.71,1.71,0,0,0,148.65,15.79Z"/><path class="cls-4" d="M197.89,20.37a7.09,7.09,0,0,0-1.66-2.45,7.43,7.43,0,0,0-2.61-1.57,10,10,0,0,0-3.42-.56h-5.89a3.77,3.77,0,0,0-3.77,3.77V39A1.71,1.71,0,1,0,184,39V31.59a.24.24,0,0,1,.23-.23h6a10,10,0,0,0,3.42-.55,7.45,7.45,0,0,0,2.61-1.58,6.91,6.91,0,0,0,1.66-2.45,8.86,8.86,0,0,0,0-6.41ZM193.77,27A5.37,5.37,0,0,1,190,28.18h-5.83A.23.23,0,0,1,184,28V20.86A1.89,1.89,0,0,1,185.84,19H190a5.37,5.37,0,0,1,3.76,1.23,4.33,4.33,0,0,1,1.34,3.38A4.32,4.32,0,0,1,193.77,27Z"/><path class="cls-4" d="M174.65,22.66c-.09-.41-.2-.81-.32-1.19a8.54,8.54,0,0,0-3.28-4.57,11,11,0,0,0-11.2,0,8.49,8.49,0,0,0-3.28,4.57,10.92,10.92,0,0,0-.33,1.19,11.58,11.58,0,0,0-.21,1.43c-.05.55-.05,7.75,0,8.3a11.76,11.76,0,0,0,.21,1.44,11.41,11.41,0,0,0,.33,1.18,8.46,8.46,0,0,0,3.28,4.57,11,11,0,0,0,11.2,0A8.51,8.51,0,0,0,174.33,35c.12-.38.23-.78.32-1.18a11.76,11.76,0,0,0,.21-1.44c0-.55,0-7.75,0-8.3A11.58,11.58,0,0,0,174.65,22.66Zm-3.26,9.25c-.06.51-.13.94-.19,1.28a5.57,5.57,0,0,1-.21.87,5.47,5.47,0,0,1-2,2.87,6.82,6.82,0,0,1-7.11,0,5.49,5.49,0,0,1-2-2.87,6.81,6.81,0,0,1-.22-.87c-.06-.34-.12-.77-.19-1.28s-.06-6.82,0-7.34.13-.94.19-1.28a6.61,6.61,0,0,1,.22-.86,5.47,5.47,0,0,1,2-2.88,6.82,6.82,0,0,1,7.11,0,6,6,0,0,1,2.21,3.74c.06.34.13.77.19,1.28S171.46,31.4,171.39,31.91Z"/></svg>