<svg xmlns="http://www.w3.org/2000/svg" viewBox="0 0 668 393"><defs><style>.cls-1{isolation:isolate;}.cls-2{fill:#fff;}.cls-3{fill:#4089ff;}.cls-4{fill:#19243d;}.cls-5{fill:#ef5050;}.cls-6{fill:#ffc800;}.cls-7{fill:#bf3d3d;}.cls-8{fill:#c31f31;}.cls-9{fill:#1a1a1a;}.cls-10{fill:#0d121f;}.cls-11{fill:#ccc;mix-blend-mode:multiply;}</style></defs><g class="cls-1"><g id="Layer_1" data-name="Layer 1"><path class="cls-2" d="M278.67,76.68H42.8A32.32,32.32,0,0,1,43.07,71h0a50.9,50.9,0,0,1,6.11-18c5-8.79,12.46-15.28,20.85-13.28A18.53,18.53,0,0,1,78,44.16c4,3.58,7.29,8,11.3,11.59s9.12,6.54,14.5,6.14c6.75-.48,11.6-6.52,12.61-12.87,2.42-15.29,2.27-45.49,21.39-49.67l1.07-.21c16.33-2.8,27.6,13.16,31.94,27.46.5,1.62.9,3.22,1.22,4.77a61.21,61.21,0,0,1,1.37,12l.09.77c.13,1.11.28,2.21.46,3.29a26.54,26.54,0,0,0,2.26,7.44,3.36,3.36,0,0,0,2,2c2.61.64,4.8-2.39,6.29-4.8.42-.67.79-1.3,1.09-1.79,4.74-7.52,17.82-12.53,23.72-3.51,4.12,6.3.69,18.58,9.28,21.72,9.84,3.6,12.32-9.34,13.2-16,1.08-8.16.9-16.52,3.3-24.46,1-2.38,2.72-5.1,5.44-5.44A7,7,0,0,1,246.58,27c3,7.32,3.84,15.21,4.94,23,.9,6.3,2.12,20.2,10.5,21,4.45.41,8.48-7.53,12.6-4C277.24,69.14,277.1,73.81,278.67,76.68Z"/><path class="cls-3" d="M89.44,332.65c9.46,5.31,14.92,13.55,12.2,18.41s-12.61,4.51-22.07-.8C73,346.59,69.69,339.19,68.26,335a3.06,3.06,0,0,1,2.24-4C74.84,330,82.89,329,89.44,332.65Z"/><path class="cls-3" d="M127.69,335.6c-5.35,5.42-11.93,7.58-14.72,4.84s-.71-9.36,4.64-14.78c3.7-3.75,9.32-4.62,12.44-4.81a2.15,2.15,0,0,1,2.28,2.25C132.19,326.22,131.38,331.86,127.69,335.6Z"/><path class="cls-4" d="M106.29,385.17h-1.65c0-.55,0-1.09,0-1.65a224.81,224.81,0,0,0-2.78-32.87c-.43-2.71-.91-5.42-1.43-8.15-1.48-7.73-3.35-15.56-5.61-23.43a.83.83,0,0,1,1.59-.46,244.25,244.25,0,0,1,9.88,64.91C106.29,384.08,106.29,384.62,106.29,385.17Z"/><path class="cls-4" d="M93.15,311.54a.83.83,0,0,1-.79-.58c-8-25-17-41.29-17.1-41.45a.83.83,0,0,1,1.44-.81c.09.17,9.22,16.65,17.23,41.76a.83.83,0,0,1-.53,1A.77.77,0,0,1,93.15,311.54Z"/><circle class="cls-5" cx="80.25" cy="281.23" r="18.36" transform="translate(-209.44 321.38) rotate(-81.97)"/><path class="cls-4" d="M123.49,287.74c-.85,2.42-1.64,4.88-2.39,7.4a1.29,1.29,0,0,0,0,.19c-.16.53-.33,1.06-.47,1.6a.14.14,0,0,0,0,.06c-1.55,5.44-2.87,11.05-4,16.68s-2.06,11.41-2.83,17c-.44,3.16-.82,6.28-1.15,9.32a410.08,410.08,0,0,0-2.42,43.53c0,.81,0,1.38,0,1.65h-1.66c0-.29,0-.84,0-1.65,0-7.92.31-39.62,6.52-70.55,1-5.22,2.25-10.42,3.67-15.48.15-.56.31-1.13.47-1.69h0a1.31,1.31,0,0,0,0-.15c.15-.55.32-1.09.48-1.65.69-2.31,1.43-4.57,2.21-6.8a.84.84,0,0,1,1.06-.5A.82.82,0,0,1,123.49,287.74Z"/><polygon class="cls-6" points="138.41 291.36 125.42 278.38 107.69 283.13 102.94 300.86 115.92 313.85 133.65 309.09 138.41 291.36"/><path class="cls-2" d="M80.25,283.47c-9.53,0-19.65-2.31-19.65-6.58a.83.83,0,0,1,1.65,0c0,2.06,6.84,4.93,18,4.93s18-2.87,18-4.93a.83.83,0,0,1,1.65,0C99.89,281.16,89.77,283.47,80.25,283.47Z"/><path class="cls-2" d="M80.25,283.47c-9.53,0-19.65-2.31-19.65-6.58a.83.83,0,0,1,1.65,0c0,2.06,6.84,4.93,18,4.93s18-2.87,18-4.93a.83.83,0,0,1,1.65,0C99.89,281.16,89.77,283.47,80.25,283.47Z"/><path class="cls-2" d="M95.46,288.36a17.1,17.1,0,0,1-3.77-.49,48.18,48.18,0,0,1-12.59-5.28c-8.25-4.76-15.87-11.81-13.74-15.51a.82.82,0,0,1,1.43.82c-1,1.78,3.47,7.69,13.13,13.26a46.92,46.92,0,0,0,12.14,5.1c3.71.86,5.48.37,5.91-.37a.82.82,0,0,1,1.43.82C98.77,287.81,97.42,288.36,95.46,288.36Z"/><path class="cls-2" d="M95.46,288.36a17.1,17.1,0,0,1-3.77-.49,48.18,48.18,0,0,1-12.59-5.28c-8.25-4.76-15.87-11.81-13.74-15.51a.82.82,0,0,1,1.43.82c-1,1.78,3.47,7.69,13.13,13.26a46.92,46.92,0,0,0,12.14,5.1c3.71.86,5.48.37,5.91-.37a.82.82,0,0,1,1.43.82C98.77,287.81,97.42,288.36,95.46,288.36Z"/><path class="cls-2" d="M102.94,301.69a.82.82,0,0,1-.8-.61.84.84,0,0,1,.59-1l35.46-9.51a.84.84,0,0,1,1,.59.82.82,0,0,1-.58,1l-35.47,9.5Z"/><path class="cls-2" d="M120.67,296.94a.82.82,0,0,1-.58-.24l-13-13a.82.82,0,0,1,1.16-1.16l13,13a.83.83,0,0,1,0,1.17A.86.86,0,0,1,120.67,296.94Z"/><path class="cls-6" d="M529.23,45.74,482.89,346.08a8.86,8.86,0,0,1-10,7.43L391,342.39l-91.78-14.31a9.4,9.4,0,0,1-7.84-10.74L338.37,16a8.56,8.56,0,0,1,.25-1.14,9.42,9.42,0,0,1,10.49-6.71l134.5,21,15.74,2.45,22,3.44A9.4,9.4,0,0,1,529.23,45.74Z"/><path class="cls-4" d="M348.4,328.71h-.13L309,322.58a10.23,10.23,0,0,1-8.53-11.68L334.9,90.23a.82.82,0,0,1,.94-.69.83.83,0,0,1,.69.95l-34.4,220.66a8.57,8.57,0,0,0,7.16,9.8l39.24,6.12a.83.83,0,0,1-.13,1.64Z"/><path class="cls-4" d="M441.45,343.21h-.13l-66.59-10.38a.82.82,0,0,1,.25-1.63l66.59,10.38a.82.82,0,0,1-.12,1.64Z"/><path class="cls-5" d="M497.76,305.82h-.13a.83.83,0,0,1-.68-.95l5.75-36.94a.82.82,0,0,1,.94-.68.82.82,0,0,1,.69.94l-5.76,36.94A.82.82,0,0,1,497.76,305.82Z"/><path class="cls-5" d="M509.06,233.35h-.13a.82.82,0,0,1-.69-.94l30.1-193.1a8.59,8.59,0,0,0-7.16-9.8l-14.59-2.27a.83.83,0,0,1,.26-1.63l14.59,2.27A10.24,10.24,0,0,1,540,39.55l-30.1,193.11A.83.83,0,0,1,509.06,233.35Z"/><path class="cls-5" d="M403.8,9.63h-.13L372,4.69a.82.82,0,1,1,.25-1.63L403.92,8a.82.82,0,0,1-.12,1.63Z"/><path class="cls-4" d="M292.23,207.27a1.3,1.3,0,0,0-1.13-.94,1.32,1.32,0,0,0-1.4.93,1.23,1.23,0,0,0-.05.25l-.24,2.5-.33,3.34-10.45,106.3a1.32,1.32,0,0,0,1.18,1.45h.13a1.33,1.33,0,0,0,1.31-1.2l10.42-106,.39-3.91.22-2.24A1.4,1.4,0,0,0,292.23,207.27Zm206.63-82.63a1.3,1.3,0,0,0-1.44,1.19L479.05,312.67a1.32,1.32,0,0,0,1.18,1.45h.13a1.31,1.31,0,0,0,1.31-1.19L500,126.08A1.31,1.31,0,0,0,498.86,124.64Zm3.69-92.57a14.72,14.72,0,0,0-2.61-1.68,14.44,14.44,0,0,0-5.2-1.51L460.6,25.52h0L339.09,13.58l-15.36-1.51a14.82,14.82,0,0,0-16.17,13.26L298,123.62a1.33,1.33,0,0,0,1.18,1.45h.23a1.32,1.32,0,0,0,1.22-1.18l9.59-98.3a12.16,12.16,0,0,1,13.28-10.9l14.88,1.47L483.48,30.42l11,1.09a12,12,0,0,1,4.28,1.23,12.26,12.26,0,0,1,6.63,12l-5.45,55.43a1.3,1.3,0,0,0,1.18,1.44,1.32,1.32,0,0,0,1.44-1.19L508,45A14.87,14.87,0,0,0,502.55,32.07Z"/><polygon class="cls-6" points="53.76 222.76 55.96 226.92 59.99 229.2 55.96 231.47 53.76 235.63 51.55 231.47 47.53 229.2 51.55 226.92 53.76 222.76"/><polygon class="cls-3" points="267.04 -2.49 268.93 1.09 272.4 3.05 268.93 5.01 267.04 8.59 265.14 5.01 261.67 3.05 265.14 1.09 267.04 -2.49"/><path class="cls-2" d="M35,169.94A2.39,2.39,0,1,1,37.62,172,2.39,2.39,0,0,1,35,169.94Z"/><path class="cls-2" d="M33.88,161a2.39,2.39,0,1,1,2.66,2.09A2.39,2.39,0,0,1,33.88,161Z"/><circle class="cls-2" cx="45.96" cy="159.5" r="2.39" transform="translate(-18.77 6.65) rotate(-6.88)"/><path class="cls-2" d="M24.87,162.05a2.39,2.39,0,1,1,2.66,2.08A2.39,2.39,0,0,1,24.87,162.05Z"/><path class="cls-2" d="M32.79,152a2.39,2.39,0,1,1,2.66,2.09A2.39,2.39,0,0,1,32.79,152Z"/><path class="cls-3" d="M579.13,93.86a.58.58,0,0,1-.41-.17.57.57,0,0,1-.13-.61l4-10.41L572,86.48a.58.58,0,0,1-.59-.13.59.59,0,0,1-.15-.59l3.94-12.1a.57.57,0,1,1,1.09.35l-3.58,11,10.71-3.83a.57.57,0,0,1,.73.74l-4,10.4,10.5-3.91a.58.58,0,0,1,.74.34.57.57,0,0,1-.34.74l-11.69,4.34A.51.51,0,0,1,579.13,93.86Z"/><path class="cls-3" d="M189.64,122.48a.41.41,0,0,1,.07-.3.41.41,0,0,1,.42-.14l7.63,1.8-3.67-7a.41.41,0,0,1,.43-.59l8.81,1.59a.4.4,0,0,1-.15.79l-8-1.44,3.69,7.1a.4.4,0,0,1-.45.57L190.81,123l3.72,6.94a.4.4,0,1,1-.71.38l-4.14-7.73A.33.33,0,0,1,189.64,122.48Z"/><path class="cls-4" d="M143.91,238.59a1,1,0,0,0-1.3.51,9.29,9.29,0,0,1-7.14,5.76,11.11,11.11,0,0,1-3.9-.05,7.1,7.1,0,0,0,1.82-6.06,5.58,5.58,0,0,0-3-4,6.77,6.77,0,0,0-5.94,0,4.7,4.7,0,0,0-2.73,3.13c-.3,1.43.27,2.93,1.68,4.48a14.66,14.66,0,0,0,4.38,3.25,35.41,35.41,0,0,1-9.51,4.3,1,1,0,0,0,.28,1.94.87.87,0,0,0,.28,0c2.82-.84,7.75-2.58,11.12-5.36a13.28,13.28,0,0,0,5.91.37,11.22,11.22,0,0,0,8.62-6.93A1,1,0,0,0,143.91,238.59Zm-14.47,5.61a12.53,12.53,0,0,1-4.62-3.18c-.67-.71-1.42-1.78-1.21-2.74a3,3,0,0,1,1.67-1.76,4.82,4.82,0,0,1,2.16-.5,4.47,4.47,0,0,1,2,.46,3.54,3.54,0,0,1,2,2.63A5.62,5.62,0,0,1,129.44,244.2Z"/><path class="cls-2" d="M205.6,212.47s-84.48,0-84.57,0H100.79a17.88,17.88,0,0,1-.23-3.94h0l0-.32c0-.1,0-.18,0-.2a35.51,35.51,0,0,1,1.17-5.22,28,28,0,0,1,3.07-6.86,18.38,18.38,0,0,1,6.3-6.25,25,25,0,0,1,8.28-3,18.76,18.76,0,0,1,14,2.74c2.52,1.72,4.85,4.37,8,4.78,4.86.64,6.14-4.71,6.54-8.42,1.06-10,1.91-25.51,14.07-28.38a6.93,6.93,0,0,1,5.51.88c3,1.9,4.94,5.93,6,9.24,1.77,5.35,2.74,11.14,4.94,16.31,1.63,3.84,4.87,6.16,9.12,5.59a10.13,10.13,0,0,1,4.12.3,15.4,15.4,0,0,1,7.69,5.53,21.23,21.23,0,0,1,1.88,2.85C203.65,202.33,204.65,207.7,205.6,212.47Z"/><path class="cls-2" d="M535.43,219.35H637c-.69-8.5-6.25-23-7.28-24.67-.42-.68-.79-1.31-1.1-1.79-4.74-7.52-17.81-12.54-23.71-3.52-4.12,6.3-.69,18.59-9.28,21.72-9.85,3.61-12.33-9.34-13.2-16-1.08-8.16-.9-16.52-3.3-24.46-1-2.38-2.72-5.09-5.44-5.43a7,7,0,0,0-6.12,4.41c-3,7.32-3.84,15.21-4.94,23-.89,6.3-2.12,20.2-10.5,21-4.44.42-8.47-7.53-12.59-4C536.87,211.82,537,216.48,535.43,219.35Z"/><path class="cls-4" d="M664.68,385.17H625a.83.83,0,0,1,0-1.65h39.68a.83.83,0,1,1,0,1.65Z"/><path class="cls-4" d="M613.3,384.35a.83.83,0,0,1-.83.82H466.8a.82.82,0,0,1-.25-1.61,1.09,1.09,0,0,1,.25,0H612.47A.83.83,0,0,1,613.3,384.35Z"/><path class="cls-4" d="M526.86,385.21H311.79a.83.83,0,0,1,0-1.65H526.86a.83.83,0,0,1,0,1.65Z"/><path class="cls-4" d="M287.59,385.21H170.23a.83.83,0,1,1,0-1.65H287.59a.83.83,0,1,1,0,1.65Z"/><path class="cls-4" d="M184.55,384.35a.82.82,0,0,1-.82.82H64a.83.83,0,1,1,0-1.65H183.73a.93.93,0,0,1,.24,0A.83.83,0,0,1,184.55,384.35Z"/><path class="cls-4" d="M39.78,385.17H3.32a.83.83,0,1,1,0-1.65H39.78a.83.83,0,1,1,0,1.65Z"/><rect class="cls-2" x="347.54" y="104" width="137.48" height="25.74" rx="12.87" transform="translate(18.19 -51.87) rotate(7.29)"/><rect class="cls-2" x="352.54" y="64.89" width="137.48" height="25.74" rx="12.87" transform="translate(13.27 -52.82) rotate(7.29)"/><rect class="cls-3" x="370.06" y="74.26" width="102.44" height="6.99" rx="3.5" transform="translate(13.27 -52.82) rotate(7.29)"/><path class="cls-4" d="M387.47,118.86h-.06a.44.44,0,0,1-.38-.49l1.14-8.92a.44.44,0,0,1,.88.11l-1.14,8.92A.45.45,0,0,1,387.47,118.86Z"/><path class="cls-4" d="M384.48,117.15a.45.45,0,0,1-.27-.8l7.11-5.5a.45.45,0,1,1,.55.71l-7.11,5.5A.49.49,0,0,1,384.48,117.15Z"/><path class="cls-4" d="M392.5,115h-.06l-8.92-1.14a.45.45,0,0,1,.12-.89l8.91,1.15a.44.44,0,0,1-.05.88Z"/><path class="cls-4" d="M390.79,118a.44.44,0,0,1-.35-.18l-5.5-7.11a.44.44,0,0,1,.7-.54l5.5,7.11a.44.44,0,0,1-.08.62A.41.41,0,0,1,390.79,118Z"/><path class="cls-4" d="M401.78,120.69h-.06a.44.44,0,0,1-.38-.49l1.14-8.92a.44.44,0,0,1,.88.11l-1.14,8.92A.44.44,0,0,1,401.78,120.69Z"/><path class="cls-4" d="M398.79,119a.45.45,0,0,1-.27-.8l7.11-5.5a.45.45,0,1,1,.55.71l-7.11,5.5A.49.49,0,0,1,398.79,119Z"/><path class="cls-4" d="M406.81,116.8h-.06l-8.92-1.14a.45.45,0,0,1,.12-.89l8.92,1.15a.44.44,0,0,1-.06.88Z"/><path class="cls-4" d="M405.1,119.79a.44.44,0,0,1-.35-.18l-5.5-7.11a.44.44,0,0,1,.7-.54l5.5,7.11a.44.44,0,0,1-.08.62A.41.41,0,0,1,405.1,119.79Z"/><path class="cls-4" d="M416.09,122.52H416a.45.45,0,0,1-.38-.5l1.14-8.92a.45.45,0,0,1,.5-.38.44.44,0,0,1,.38.49l-1.14,8.92A.44.44,0,0,1,416.09,122.52Z"/><path class="cls-4" d="M413.1,120.81a.45.45,0,0,1-.27-.8l7.11-5.49a.45.45,0,0,1,.63.07.46.46,0,0,1-.08.63l-7.11,5.5A.49.49,0,0,1,413.1,120.81Z"/><path class="cls-4" d="M421.12,118.63h-.06l-8.92-1.14a.44.44,0,0,1,.12-.88l8.92,1.14a.44.44,0,0,1-.06.88Z"/><path class="cls-4" d="M419.41,121.62a.44.44,0,0,1-.35-.18l-5.5-7.11a.44.44,0,0,1,.7-.54l5.5,7.11a.44.44,0,0,1-.08.62A.41.41,0,0,1,419.41,121.62Z"/><path class="cls-4" d="M430.4,124.35h-.06a.45.45,0,0,1-.38-.5l1.14-8.92a.44.44,0,0,1,.88.11L430.84,124A.44.44,0,0,1,430.4,124.35Z"/><path class="cls-4" d="M427.41,122.64a.45.45,0,0,1-.27-.8l7.11-5.49a.45.45,0,1,1,.55.7l-7.11,5.5A.49.49,0,0,1,427.41,122.64Z"/><path class="cls-4" d="M435.43,120.46h-.06l-8.92-1.14a.44.44,0,0,1,.12-.88l8.92,1.14a.44.44,0,0,1-.06.88Z"/><path class="cls-4" d="M433.72,123.45a.44.44,0,0,1-.35-.18l-5.5-7.11a.44.44,0,0,1,.7-.54l5.5,7.11a.43.43,0,0,1-.08.62A.41.41,0,0,1,433.72,123.45Z"/><path class="cls-4" d="M446.48,126.19h-.06a.44.44,0,0,1-.38-.5l1.14-8.91a.44.44,0,1,1,.88.11l-1.14,8.92A.44.44,0,0,1,446.48,126.19Z"/><path class="cls-4" d="M443.49,124.49a.44.44,0,0,1-.35-.18.44.44,0,0,1,.08-.62l7.11-5.5a.46.46,0,0,1,.63.08.44.44,0,0,1-.08.62l-7.12,5.5A.45.45,0,0,1,443.49,124.49Z"/><path class="cls-4" d="M451.51,122.31h-.06l-8.92-1.14a.44.44,0,0,1,.12-.88l8.91,1.14a.44.44,0,0,1,.39.5A.45.45,0,0,1,451.51,122.31Z"/><path class="cls-4" d="M449.8,125.29a.46.46,0,0,1-.35-.17L444,118a.45.45,0,1,1,.7-.55l5.5,7.12a.44.44,0,0,1-.08.62A.46.46,0,0,1,449.8,125.29Z"/><circle class="cls-2" cx="394.1" cy="262.32" r="29.51"/><path class="cls-4" d="M395.86,242.42a10.93,10.93,0,0,0-12,9.68l-.49,4.45-1.25,11.55a.5.5,0,0,0,.44.56l8.05.88h0l4.53.49,8.14.89h.05a.52.52,0,0,0,.32-.11.49.49,0,0,0,.19-.35l1.26-11.55.48-4.44A10.94,10.94,0,0,0,395.86,242.42Zm7,27.42L395,269l-4.16-.45-7.73-.84,1.22-11.12.47-4.37a9.9,9.9,0,1,1,19.69,2.15l-.47,4.36Z"/><rect class="cls-3" x="383.26" y="252.75" width="19.74" height="29.43" rx="4.6" transform="translate(84.71 629.36) rotate(-83.79)"/><path class="cls-2" d="M396,266.06a2.78,2.78,0,1,0-5.53-.6,2.74,2.74,0,0,0,.65,2.1l-1.06,3.57a1,1,0,0,0,.83,1.25l3.21.35a1,1,0,0,0,1.08-1L395,268A2.72,2.72,0,0,0,396,266.06Z"/><path class="cls-3" d="M561.58,366.11c6.24,6.32,13.92,8.84,17.17,5.64s.82-10.92-5.41-17.24c-4.31-4.37-10.87-5.39-14.51-5.61a2.51,2.51,0,0,0-2.66,2.63C556.34,355.16,557.27,361.74,561.58,366.11Z"/><path class="cls-4" d="M599.85,271c-1.08,3.07-2.07,6.23-3,9.42-1.1,3.84-2.06,7.75-2.93,11.68-.46,2.08-.88,4.16-1.28,6.24-.24,1.25-.47,2.51-.68,3.75a340.67,340.67,0,0,0-4.58,43.77c-.8,18.61-.16,33.29.08,37.67,0,.86.08,1.33.08,1.35a.73.73,0,0,1,0,.3H586l0-.18s0-.54-.09-1.47c-.24-4.53-.87-19.19-.07-37.73a342.92,342.92,0,0,1,4.62-44.09c.21-1.24.45-2.5.69-3.74.4-2.09.83-4.19,1.29-6.28.86-3.94,1.84-7.85,2.92-11.7q1.4-4.86,3-9.54a.83.83,0,0,1,1.05-.5A.82.82,0,0,1,599.85,271Z"/><path class="cls-4" d="M581.3,383.52c0,.47,0,.94,0,1.42a.59.59,0,0,1,0,.23h-1.57a1,1,0,0,1,0-.25c0-.47,0-.94,0-1.4q0-6.51-.46-12.3c-.31-3.84-.77-7.45-1.34-10.84a104.06,104.06,0,0,0-9.36-29.22c-1.19-2.41-2.38-4.57-3.51-6.52a.82.82,0,0,1,1.42-.82c1.17,2,2.4,4.26,3.63,6.76C575.66,342,581.39,358.74,581.3,383.52Z"/><path class="cls-3" d="M598.9,289.93c-1.22,5.23-4.39,9-7.08,8.33s-3.87-5.37-2.65-10.6c.84-3.62,3.91-6.22,5.71-7.48a1.53,1.53,0,0,1,2.21.52C598.15,282.63,599.74,286.31,598.9,289.93Z"/><path class="cls-5" d="M617.94,275a3.65,3.65,0,0,0-2.51-5.56h0a6.94,6.94,0,0,0-7.26,3.28l-8.91,16.55a5.43,5.43,0,0,1-6,2.71h0a5.45,5.45,0,0,1-4.2-5.1l-.66-18.78a7,7,0,0,0-5.06-6.16h0a4.85,4.85,0,0,0-4.67,5s.84,24.81.89,25.3l0,.23a10.13,10.13,0,0,0,7.74,8.52l7.24,1.69a10.14,10.14,0,0,0,10.71-4.21h0Z"/><path class="cls-6" d="M558,308.53h0l5.76-11.21a4.31,4.31,0,0,0-3.22-6.24h0a4.31,4.31,0,0,0-4.86,5.06Z"/><path class="cls-6" d="M553.07,312.22h0l-12.39,2.32a4.31,4.31,0,0,1-5.06-4.86h0a4.3,4.3,0,0,1,6.24-3.21Z"/><path class="cls-6" d="M556.61,317h0l-5.76,11.22a4.31,4.31,0,0,0,3.21,6.23h0a4.32,4.32,0,0,0,4.87-5.06Z"/><path class="cls-6" d="M561.55,313.27h0L574,311a4.32,4.32,0,0,1,5.06,4.86h0a4.32,4.32,0,0,1-6.24,3.22Z"/><path class="cls-6" d="M554.83,309.27h0l-3.86-12a4.31,4.31,0,0,0-6.68-2.13h0a4.31,4.31,0,0,0,.14,7Z"/><path class="cls-6" d="M553.94,315.37h0l-7.12,10.41a4.32,4.32,0,0,1-7,.14h0a4.33,4.33,0,0,1,2.14-6.69Z"/><path class="cls-6" d="M559.79,316.23h0l3.86,12a4.33,4.33,0,0,0,6.69,2.14h0a4.32,4.32,0,0,0-.14-7Z"/><path class="cls-6" d="M560.68,310.12h0l7.12-10.41a4.32,4.32,0,0,1,7-.14h0a4.32,4.32,0,0,1-2.14,6.69Z"/><rect class="cls-2" x="366.77" y="161.64" width="81.47" height="29.91" rx="14.96" transform="translate(25.7 -50.28) rotate(7.29)"/><path class="cls-5" d="M391.53,180.91h-.19a1.18,1.18,0,0,1-1-1.36l1.12-7a1.18,1.18,0,0,1,1.33-1l27.76,3.72-1.84-2.33a1.19,1.19,0,0,1,1.87-1.47l3.64,4.63a1.2,1.2,0,0,1,.09,1.32,1.17,1.17,0,0,1-1.18.59l-29.51-4-.94,5.86A1.19,1.19,0,0,1,391.53,180.91Z"/><path class="cls-5" d="M418.53,181a1.18,1.18,0,0,1-.62-2.19l4.77-2.95a1.18,1.18,0,0,1,1.25,2l-4.78,2.95A1.17,1.17,0,0,1,418.53,181Z"/><path class="cls-7" d="M602.24,150.62,601,161.94a.43.43,0,0,0,.61.44l2.84-1.39,1.28-11.32a.42.42,0,0,0-.61-.43Z"/><path class="cls-5" d="M610.07,162.11l-.73-1.07h0l-4.22-6.2-2.87-4.21h0l3.21-1.56a.44.44,0,0,1,.54.14l6.66,9.78h0l.73,1.07-.09.05Z"/><path class="cls-8" d="M604.41,161l-3.21,1.56a.41.41,0,0,1-.54-.14l-7.49-11-.76-1.11,3.79-1.37.75,1.11,4.59,6.73Z"/><path class="cls-5" d="M604.41,161l-3.21,1.56a.41.41,0,0,1-.54-.14l-7.49-11-.76-1.11,3.79-1.37.75,1.11,4.59,6.73Z"/><path class="cls-7" d="M121.21,142.35l-11.34,1.17a.42.42,0,0,1-.42-.61l1.41-2.83,11.33-1.17a.42.42,0,0,1,.43.61Z"/><path class="cls-5" d="M109.8,134.41l1.06.74h0l6.15,4.29,4.18,2.91h0l1.59-3.19a.41.41,0,0,0-.14-.54l-9.7-6.77h0l-1.07-.74,0,.09Z"/><path class="cls-8" d="M110.86,140.08l-1.59,3.19a.42.42,0,0,0,.13.54l10.92,7.6,1.1.77,1.41-3.77-1.1-.76L115,143Z"/><path class="cls-5" d="M110.86,140.08l-1.59,3.19a.42.42,0,0,0,.13.54l10.92,7.6,1.1.77,1.41-3.77-1.1-.76L115,143Z"/><path class="cls-4" d="M321.67,341.51c-1.88.51-9.51-.36-17.83-2.23-3.5,4.07-11.72,10.29-29.45,10.74-26.5.68-24.74-1.69-24.74-1.69-3.64-2.06-9-13.22-13.8-25.05-3.54,3.25-13.31,12-16.66,13.22-4.12,1.48-12.07,1.77-15-4.12s2.06-15.61,2.06-15.61a245.56,245.56,0,0,1,14.14-29.15c3.14-5.34,5.49-8.17,7.2-9.63a5.54,5.54,0,0,1,2.49-1.62l20.51-7L283.19,272a5.6,5.6,0,0,1,3.31,1.43h0c2,.63,5.54,2.72,11.32,8.64,11.19,11.49,25.62,36.23,27.68,45.36S324.91,340.63,321.67,341.51Z"/><path class="cls-4" d="M229.2,377.44c-.88,0-4.12-.89-17.37-1.77s-21.2,1.18-21.2,1.18-4.42,1.77-4.42,6.18,2.65,7.36,5.6,8,19.14,1.77,23.85,1.18,14.72-2.94,17.37-5.59S229.2,377.44,229.2,377.44Z"/><path class="cls-6" d="M241.44,315.22h11.48A2,2,0,0,0,255,312.4l-8.06-26a4.27,4.27,0,0,0-3.82-2.83H231.62a2.06,2.06,0,0,0-2.07,2.83l8.07,26A4.24,4.24,0,0,0,241.44,315.22Z"/><path class="cls-2" d="M244,291.46h0a.88.88,0,0,0,.89-1.22l-.57-1.84a1.25,1.25,0,0,0-1.11-.81h0a.88.88,0,0,0-.89,1.21l.57,1.84A1.24,1.24,0,0,0,244,291.46Z"/><path class="cls-3" d="M284.86,346.52l-35.34,1.76s-24.73-10.89-33-12.36S203,335,199.17,340.63s-2.36,15.6,4.41,21.79,22.68,13.84,22.68,13.84,24.44,9.72,33.28,11.48,10,1.77,10,1.77,2.94,1.18,4.12-13,5.89-9.42,5.89-9.42S284.86,345.63,284.86,346.52Z"/><path class="cls-3" d="M289,390.1s18.56-7.36,25.62-19.44,7.37-20.32,5.31-26.2-13.55-7.37-13.55-7.37-5.6-.88-18,4.71-47.71,26.51-47.71,26.51l-6.18,3.83s-1.77,4.12,2.65,10,9.42,5.3,9.42,5.3l26.21-8.25,5.59,2.95,3.54,7.07Z"/><path class="cls-4" d="M275.63,380.6c.88,0,4.12-.88,17.37-1.76S314.21,380,314.21,380s4.41,1.77,4.41,6.19-2.65,7.36-5.59,7.95-19.14,1.77-23.85,1.18-14.73-2.95-17.38-5.6S275.63,380.6,275.63,380.6Z"/><path class="cls-2" d="M283,382.56v0l.14,5.28a.23.23,0,0,0,.19.22.25.25,0,0,0,.18.14c2,.14,6.12.18,9.71.18,2.13,0,4.08,0,5.3,0l1.3,0h0a.25.25,0,0,0,.25-.25,0,0,0,0,0,0,0v0l-.14-5.29a.26.26,0,0,0-.19-.22.24.24,0,0,0-.19-.13c-2-.14-6.11-.18-9.7-.18-2.14,0-4.09,0-5.31,0l-1.3,0h0a.25.25,0,0,0-.25.25Z"/><path class="cls-5" d="M272.79,378.62l6.38,1.57s1.27,3.73-.79,6.67a33,33,0,0,1-3.24,4.12l-8.83-2.06a23.55,23.55,0,0,0,5-5.3C273.67,380.09,272.79,378.62,272.79,378.62Z"/><path class="cls-5" d="M235.68,370.66l-13.25,7.07s-2.35,3.54-.88,6.48a12.78,12.78,0,0,0,3.53,4.42l14.73-3.83s-2.36-1.18-4.13-6.18S235.68,370.66,235.68,370.66Z"/><path class="cls-5" d="M226.85,308.53,229,297.79l6.92-3.28,8.87-.16a.7.7,0,0,1,.64,1h0a3,3,0,0,1-2.73,1.68h-4l-4.35,1.39,6.52.87,4.12,2.54a2.08,2.08,0,0,1,.75,2.74l-1,1.91-.35,3-1.51,1.67a3.59,3.59,0,0,1-3.18,1.13l-1.08-.17-2.37,3.46c-1.57,1.17-4.81,3.19-6.7,2.64h0a5.08,5.08,0,0,1-3.42-6.33Z"/><path class="cls-5" d="M267.19,309.71,262,303l-4.59-3.9a4.63,4.63,0,0,0-1.1-.69l-5.42-2.51v.1a5.22,5.22,0,0,0,2.32,4.85l3.46,2.37-8-1.53-6.17-3.07a2.88,2.88,0,0,0-3.18.11h0a3.79,3.79,0,0,0-1.48,3.11l0,2.59a6.47,6.47,0,0,0,2.25,4.69L246,314.4a6.64,6.64,0,0,0,2.27,1.31l16.37,4.81a3.43,3.43,0,0,0,3.72-1.26h0a6.58,6.58,0,0,0,.22-7.48Z"/><path class="cls-9" d="M253.33,306.47a.22.22,0,0,0,.21-.16.23.23,0,0,0-.16-.26l-4.74-1.14a9.46,9.46,0,0,1-2.92-1.21l-6.19-4.29a.22.22,0,0,0-.25.35l6.2,4.3a10.23,10.23,0,0,0,3.06,1.27l4.74,1.14Z"/><path class="cls-9" d="M252.16,310.23a.21.21,0,0,0,.06-.42l-4.12-1.18a10.27,10.27,0,0,1-2.46-1.11l-6.81-5a.22.22,0,0,0-.25.35l6.82,5A10.41,10.41,0,0,0,248,309l4.11,1.18Z"/><path class="cls-9" d="M251.21,313.68a.22.22,0,0,0,.07-.42l-3.9-1.34a9.48,9.48,0,0,1-3-1.69l-6-5a.22.22,0,0,0-.3,0,.21.21,0,0,0,0,.3l6,5a10.39,10.39,0,0,0,3.1,1.77l3.9,1.33Z"/><path class="cls-5" d="M263.25,263.31l3.41,8.88a9.37,9.37,0,0,1,.57,4.35h0a8.88,8.88,0,0,1-9.56,7.9h0a5.06,5.06,0,0,1-4.11-2.83l-6.72-13.91Z"/><path class="cls-4" d="M252.47,385.6h0c13.71-2.63,49.75-20.45,50.12-20.63a.21.21,0,0,0,.09-.29.21.21,0,0,0-.28-.1c-.37.18-36.36,18-50,20.6a.21.21,0,0,0-.17.25A.21.21,0,0,0,252.47,385.6Z"/><path class="cls-4" d="M237.16,370a.19.19,0,0,0,.1,0L277,348.18a.21.21,0,1,0-.2-.38l-39.76,21.79a.21.21,0,0,0-.08.29A.22.22,0,0,0,237.16,370Z"/><path class="cls-4" d="M248.93,362a.21.21,0,0,0,.2-.12.21.21,0,0,0-.1-.28l-24.15-11.49a.22.22,0,0,0-.29.1.22.22,0,0,0,.11.29L248.84,362A.15.15,0,0,0,248.93,362Z"/><path class="cls-4" d="M258.36,353.5a.2.2,0,0,0,.2-.14.21.21,0,0,0-.13-.27,105.62,105.62,0,0,1-10.28-4.7.21.21,0,0,0-.29.09.23.23,0,0,0,.09.29,106.52,106.52,0,0,0,10.34,4.72Z"/><path class="cls-10" d="M312.84,317.28a.21.21,0,0,0,0-.42c-.21-.05-21.05-4.42-32.4-6.48L274,309.2h-4.42a.21.21,0,0,0-.22.21.22.22,0,0,0,.22.22H274l6.46,1.17c11.34,2.06,32.17,6.43,32.38,6.48Z"/><path class="cls-10" d="M294.87,336.42a.21.21,0,0,0,.21-.16.22.22,0,0,0-.15-.26c-10.43-2.54-24.57-9.49-25.53-10l-2.91-4.37a.22.22,0,0,0-.36.24l3,4.46.05,0c.15.07,14.87,7.4,25.66,10Z"/><path class="cls-10" d="M296.35,313.75a.24.24,0,0,0,.13-.05.22.22,0,0,0,0-.3L286.8,301a.22.22,0,0,0-.34.27l9.72,12.37A.21.21,0,0,0,296.35,313.75Z"/><path class="cls-10" d="M209.18,316.1l.12,0a46,46,0,0,1,11.1-5.27h5a.21.21,0,1,0,0-.42h-5.07a46.17,46.17,0,0,0-11.25,5.33.22.22,0,0,0-.06.3A.21.21,0,0,0,209.18,316.1Z"/><path class="cls-10" d="M233,323.76a.2.2,0,0,0,.21-.18l.89-5.3a.22.22,0,1,0-.43-.07l-.88,5.3a.22.22,0,0,0,.18.25Z"/><path class="cls-4" d="M238.84,260.19a16,16,0,0,1-1.35-3.65l-.52-1.83a6.51,6.51,0,0,1-.34-2.22,2.76,2.76,0,0,1,1.17-2,2.24,2.24,0,0,1,2.29-.12,4,4,0,0,1,1.24,1.37l1.45,2.18a8.7,8.7,0,0,1,1.21,2.32,7.37,7.37,0,0,1-.33,4.22,4.26,4.26,0,0,1-.77,1.55C241.41,263.63,239.58,261.5,238.84,260.19Z"/><path class="cls-5" d="M238.09,247.88C239,246,241,245,243,244.49a17.79,17.79,0,0,1,12,1.2,9.81,9.81,0,0,1,3.48,2.58c1.77,2.2,2,5.26,3.32,7.75a2.45,2.45,0,0,1,1-.39,3.14,3.14,0,0,1,2.65,1.06,4.87,4.87,0,0,1,1.14,2.68,4.42,4.42,0,0,1-.75,3.27c-1,1.25-2.68,1.6-4.23,1.87a10.59,10.59,0,0,1-1.89,8.1,11.93,11.93,0,0,1-7.8,5.07,7,7,0,0,1-7.26-3,20.28,20.28,0,0,1-2.8-7.19l-4.08-16.28A5.12,5.12,0,0,1,238.09,247.88Z"/><path class="cls-4" d="M262,257.88a.6.6,0,0,1-.29-.12,16.53,16.53,0,0,1-2.56-2.84c-.86-1-2.23-1.11-3.09-2.12-.43-.5-.33-1.94-.77-2.43-.2-.22-1-1.3-1.25-1.3-3.43.33-6.35,1.83-9.66,2.73-1.66.46-3.61.43-5.43.74-.81.14-1.74.65-2.35,0a10.22,10.22,0,0,1-1.41-1.67,5.94,5.94,0,0,1-.94-2.21c-.37-2,.56-4,1.46-5.86a9.77,9.77,0,0,1,3.73-4c1.35-.65,3-.41,4.35-1,1-.43,1.86-1.29,3-1.52a6.61,6.61,0,0,1,3.5.71,15.12,15.12,0,0,0,5.69.9,25.51,25.51,0,0,1,3.27-.08,4.07,4.07,0,0,1,2.88,1.37c.81,1,.79,2.5,1.26,3.74s1.56,2.39,2.26,3.65c.81,1.47.15,3.37.43,5a4.81,4.81,0,0,1,0,2.23,4.86,4.86,0,0,1-2,2.23c-.57.41-.19.6-.76,1C262.85,257.41,262.41,257.92,262,257.88Z"/><path class="cls-5" d="M261.46,256a2.17,2.17,0,0,0-1,.71,2,2,0,0,0-.28,1.39,2.19,2.19,0,0,0,.5,1.34,1.92,1.92,0,0,0,1.2.55,3,3,0,0,0,2.2-.61,1.48,1.48,0,0,0,.6-.85,2.05,2.05,0,0,0-.19-1.08c-.14-.38.46-.89.32-1.27s-.91-.43-1.2-.49A4,4,0,0,0,261.46,256Z"/><path class="cls-11" d="M261.58,268.49s-1.6,7-8.46,8.91l.06.1a3.25,3.25,0,0,0,5,.5A12.4,12.4,0,0,0,261.58,268.49Z"/><path class="cls-10" d="M258.65,289a11.89,11.89,0,0,0,5.64-1.39,12.16,12.16,0,0,0,6.2-10.61.22.22,0,0,0-.22-.22h0a.22.22,0,0,0-.21.22,11.44,11.44,0,0,1-17.81,9.68.22.22,0,0,0-.3.06.21.21,0,0,0,.06.3A12,12,0,0,0,258.65,289Z"/><path class="cls-2" d="M218.08,379.37a.25.25,0,0,0-.25-.24h0l-1.3,0-5.3,0c-3.6,0-7.7,0-9.71.18a.22.22,0,0,0-.18.13.23.23,0,0,0-.19.22L201,385s0,0,0,0v0a.26.26,0,0,0,.26.25h0l1.3,0,5.31,0c3.59,0,7.7,0,9.7-.18a.22.22,0,0,0,.19-.13.26.26,0,0,0,.19-.22l.14-5.29s0,0,0,0Z"/></g></g></svg>